<?xml version="1.0" encoding="UTF-8" standalone="no"?>
<svg width="277px" height="143px" viewBox="0 0 277 143" version="1.1" xmlns="http://www.w3.org/2000/svg" xmlns:xlink="http://www.w3.org/1999/xlink" xmlns:sketch="http://www.bohemiancoding.com/sketch/ns">
    <title>test</title>
    <description>Created with Sketch (http://www.bohemiancoding.com/sketch)</description>
    <defs></defs>
    <g id="Page-1" stroke="none" stroke-width="1" fill="none" fill-rule="evenodd" sketch:type="MSPage">
        <g id="Group" sketch:type="MSLayerGroup" transform="translate(138.900000, 71.500000) scale(1, -1) translate(-138.900000, -71.500000) translate(0.800000, 0.000000)" fill="#000000">
            <path d="M241.375331,141.959004 C240.302832,141.411111 238.977981,140.096169 238.410187,139.109962 C234.435633,131.822989 232.984605,127.056322 232.479899,119.714559 C232.038282,113.578161 233.236958,107.386973 236.643719,98.1275862 L239.167245,91.2789272 L228.063728,77.0337165 C214.56286,59.6655172 209.200365,53.364751 205.351987,50.4609195 C202.008314,47.8858238 199.358611,47.5570881 196.708908,49.3651341 C193.743764,51.3923372 193.175971,53.0908046 193.175971,60.1586207 C193.175971,64.4321839 192.923618,66.8429119 192.418913,67.2812261 C191.220238,68.3222222 185.98392,68.1030651 184.343627,66.9524904 C183.144952,66.0758621 182.829511,65.1444444 182.387894,61.035249 C182.135541,58.3505747 181.883189,55.994636 181.883189,55.7754789 C181.820101,55.5563218 181.378483,55.0084291 180.81069,54.5701149 C178.097899,52.159387 173.870991,54.8440613 169.644084,61.5831418 C168.193056,63.9938697 166.174235,66.459387 165.227912,67.062069 L163.461444,68.2126437 L161.127181,67.1168582 C159.613065,66.3498084 157.468068,64.2678161 154.502924,60.5421456 C147.563225,51.7210728 146.679991,51.2827586 142.705436,54.2413793 C139.424852,56.6521073 138.289265,56.3781609 132.989858,52.159387 C127.122659,47.3927203 124.788397,46.4065134 120.687666,46.8996169 C118.037963,47.1735632 117.028552,47.0091954 114.063408,45.6942529 C109.016354,43.4478927 108.259296,43.9957854 108.511649,49.6938697 C108.637825,53.5291188 108.511649,54.18659 107.376062,55.0632184 C104.221654,57.5287356 99.1115121,55.5563218 96.3987209,50.8444444 C94.2537232,47.1735632 94.0644587,41.4206897 95.9571037,39.3934866 C97.1557789,38.1333333 97.4081316,38.0785441 106.555916,38.1333333 C120.246048,38.2429119 124.157515,39.283908 131.601919,44.8724138 C133.242211,46.132567 134.882503,47.0091954 135.197944,46.8448276 C136.270443,46.2421456 135.765738,42.297318 134.251622,38.7908046 C133.431476,36.8731801 131.601919,32.9831418 130.277067,30.1340996 C127.375011,24.1072797 122.391046,11.3413793 120.87693,5.80766284 L119.804431,2.02720307 L121.192371,0.986206897 C122.075605,0.438314176 123.65281,0 125.103837,0 C132.358977,0 138.604705,11.2318008 142.389995,31.010728 C145.607492,48.0501916 148.383371,53.5291188 151.222339,48.7624521 C151.790132,47.8310345 152.799543,45.5298851 153.430425,43.6122605 C156.332481,35.5034483 158.666743,38.0237548 161.379534,52.0498084 C161.884239,54.8988506 162.452033,57.3095785 162.515121,57.3643678 C162.578209,57.4739464 164.533942,55.7206897 166.805116,53.5291188 C172.419963,48.1597701 176.583783,46.0777778 182.892599,45.4203065 C185.605391,45.1463602 190.400091,44.2697318 193.491412,43.502682 C196.64582,42.7356322 200.746551,41.9685824 202.702284,41.8042146 C205.982869,41.5302682 206.361398,41.6398467 208.569484,43.2835249 C211.408451,45.4750958 219.483737,54.789272 226.6127,64.1034483 C232.921517,72.3218391 239.482686,79.7731801 241.122979,80.5402299 C243.331064,81.5812261 243.898858,79.3896552 244.151211,69.691954 C244.466651,58.8984674 243.520329,52.0498084 241.438419,49.9678161 C240.176656,48.7076628 239.861215,48.5980843 238.157835,49.2555556 C237.148424,49.6390805 234.751074,51.2827586 232.858429,52.9264368 C231.028872,54.5153257 229.01005,55.8850575 228.379169,55.8850575 C226.928141,55.8850575 225.981818,53.8578544 225.981818,50.8992337 C225.981818,49.145977 226.423435,48.3241379 228.505345,46.3517241 C231.218136,43.7766284 238.031658,40.5440613 243.267976,39.3386973 C246.23312,38.6812261 246.296208,38.6812261 247.810324,40.1605364 C249.450617,41.8042146 249.955322,43.2287356 251.974143,51.2279693 C253.046642,55.6111111 253.362083,58.5697318 253.362083,66.0210728 C253.425171,76.3214559 252.920466,79.1157088 249.829146,85.1425287 C247.179443,90.2927203 246.864002,93.9636015 248.630471,99.8260536 C250.586204,106.619923 251.40635,118.290038 250.586204,128.645211 C250.270763,133.357088 249.702969,138.068966 249.32444,139.109962 C248.062677,142.945211 245.223709,143.986207 241.375331,141.959004 L241.375331,141.959004 Z M242.952535,128.152107 C244.719004,126.508429 245.791503,122.454023 245.728415,117.522989 C245.728415,111.331801 243.267976,104.64751 241.05989,104.64751 C238.220923,104.64751 237.211512,125.68659 239.861215,128.480843 C240.933714,129.576628 241.501508,129.521839 242.952535,128.152107 L242.952535,128.152107 Z" id="Shape" sketch:type="MSShapeGroup"></path>
            <path d="M49.7134765,136.315709 C48.8933303,135.329502 45.423481,129.850575 42.01672,124.097701 C38.6730471,118.399617 34.2568753,110.893487 32.2380539,107.551341 C29.9037917,103.551724 27.2540886,97.6344828 24.7305619,90.840613 C20.5667428,79.7183908 16.5291,70.4042146 10.5988122,58.0766284 C1.32485153,39.064751 -2.14499772,26.0796935 1.32485153,23.3402299 C4.41617177,20.8747126 7.57058017,24.8743295 10.8511649,35.6130268 C11.9236638,39.064751 13.5639561,43.0095785 14.4471905,44.2697318 C16.7183646,47.7762452 18.6740978,48.2693487 28.4527638,48.1049808 C37.53746,47.940613 38.6099589,48.2693487 38.6099589,51.2279693 C38.6099589,53.9126437 37.4112837,54.4605364 32.4273184,54.0222222 C23.3426222,53.2551724 17.7908634,52.9812261 17.7908634,53.364751 C17.7908634,53.5291188 19.7465966,57.3095785 22.143947,61.8022989 C27.8849703,72.5409962 30.408497,78.6226054 33.8783463,89.9639847 C37.3481955,101.140996 40.8811329,109.304598 44.287894,113.906897 C46.8745089,117.303831 49.2718593,118.618774 50.7859753,117.303831 C52.0477387,116.153257 51.4799452,107.332184 49.0825948,93.1417625 C45.1711284,69.7467433 43.6570123,54.0770115 43.4677478,36.051341 C43.3415715,24.3264368 43.7201005,22.4636015 46.1174509,22.4636015 C48.1362723,22.4636015 60.6908177,25.2030651 62.5834628,26.0249042 C65.5486067,27.3398467 67.3781635,29.805364 70.0909548,36.2704981 C71.5419826,39.667433 73.3715395,43.1739464 74.1916857,44.105364 C75.6427136,45.6394636 75.7058017,45.6942529 77.2830059,44.8176245 C80.1219735,43.1739464 83.4025582,35.6678161 83.4025582,30.7915709 C83.4025582,28.0521073 84.7904979,25.4222222 86.3677021,25.0934866 C86.9985838,24.9291188 88.4496117,25.0386973 89.5221106,25.3126437 C93.3704888,26.189272 93.1181361,29.9149425 88.7019644,38.5168582 C82.8347647,49.748659 81.5099132,52.8168582 81.5099132,55.391954 C81.5099132,58.2409962 81.9515304,58.8436782 89.4590224,65.5827586 C91.8563728,67.7195402 94.6953403,70.8425287 95.7678392,72.4314176 C109.394884,92.8130268 111.792234,97.3057471 111.792234,102.729885 C111.792234,105.304981 111.539881,106.017241 110.151942,107.222605 C108.764002,108.427969 108.13312,108.592337 105.672682,108.318391 C99.2376884,107.715709 94.947693,102.839464 83.7810873,83.8275862 C77.0306533,72.2122605 73.560804,65.0348659 72.6144815,60.432567 C71.4788945,55.0632184 63.0250799,40.5988506 58.2934673,36.051341 C55.7699406,33.640613 54.7605299,33.4762452 53.4987666,35.2295019 C51.2275925,38.2429119 51.6061215,47.1735632 55.0128826,73.6915709 C57.5994975,93.6348659 58.4196437,104.976245 57.9780265,116.427203 C57.5364093,127.275479 56.7793513,132.206513 55.0128826,135.713027 C53.5618547,138.616858 51.9215624,138.781226 49.7134765,136.315709 L49.7134765,136.315709 Z M102.392097,98.0180077 C104.221654,96.4291188 103.716948,93.7444444 100.877981,88.7586207 C96.9034262,82.0195402 85.2321151,67.8291188 84.2857926,68.6509579 C83.9703518,68.8701149 94.4429877,91.0049808 96.3987209,94.4019157 C97.9128369,96.9770115 99.805482,99.1685824 100.499452,99.1685824 C100.814893,99.1685824 101.698127,98.6206897 102.392097,98.0180077 L102.392097,98.0180077 Z" id="Shape" sketch:type="MSShapeGroup"></path>
            <path d="M268.440155,63.2268199 C267.304568,62.7885057 267.430745,58.3505747 268.62942,56.1042146 C270.269712,53.0908046 274.244267,52.8168582 275.758383,55.5563218 C276.767794,57.4191571 275.947647,60.5969349 274.055002,62.0762452 C272.793239,63.0624521 269.701919,63.6651341 268.440155,63.2268199 L268.440155,63.2268199 Z" id="Shape" sketch:type="MSShapeGroup"></path>
        </g>
    </g>
</svg>